<svg id="eSzpDvr9sZM1" xmlns="http://www.w3.org/2000/svg" xmlns:xlink="http://www.w3.org/1999/xlink" viewBox="0 0 50 50" shape-rendering="geometricPrecision" text-rendering="geometricPrecision">
<style><![CDATA[
#eSzpDvr9sZM14_ts {animation: eSzpDvr9sZM14_ts__ts 1000ms linear infinite normal forwards}@keyframes eSzpDvr9sZM14_ts__ts { 0% {transform: translate(15.6px,13.234068px) scale(1,0)} 50% {transform: translate(15.6px,13.234068px) scale(1,1)} 100% {transform: translate(15.6px,13.234068px) scale(1,1)}} #eSzpDvr9sZM15_ts {animation: eSzpDvr9sZM15_ts__ts 1000ms linear infinite normal forwards}@keyframes eSzpDvr9sZM15_ts__ts { 0% {transform: translate(34.2px,13.234068px) scale(1,0)} 50% {transform: translate(34.2px,13.234068px) scale(1,1)} 100% {transform: translate(34.2px,13.234068px) scale(1,1)}} #eSzpDvr9sZM17_ts {animation: eSzpDvr9sZM17_ts__ts 1000ms linear infinite normal forwards}@keyframes eSzpDvr9sZM17_ts__ts { 0% {transform: translate(24.9px,13.234068px) scale(1,0)} 50% {transform: translate(24.9px,13.234068px) scale(1,1)} 100% {transform: translate(24.9px,13.234068px) scale(1,1)}}
]]></style>
<g transform="translate(0-.017033)"><g><path d="M25,32.9c-2.8,0-5.1-2.3-5.1-5.1s2.3-5.1,5.1-5.1s5.1,2.3,5.1,5.1c0,.6-.4,1-1,1s-1-.4-1-1c0-1.7-1.4-3.1-3.1-3.1s-3.1,1.4-3.1,3.1s1.4,3.1,3.1,3.1c.6,0,1,.4,1,1s-.4,1-1,1Z" fill="#122023"/></g><g><path d="M25,41.1c-2.8,0-5.1-2.3-5.1-5.1c0-.6.4-1,1-1s1,.4,1,1c0,1.7,1.4,3.1,3.1,3.1s3.1-1.4,3.1-3.1-1.4-3.1-3.1-3.1c-.6,0-1-.4-1-1s.4-1,1-1c2.8,0,5.1,2.3,5.1,5.1s-2.3,5.1-5.1,5.1Z" fill="#122023"/></g><g><path d="M25,24.6c-.6,0-1-.4-1-1v-1.8c0-.6.4-1,1-1s1,.4,1,1v1.8c0,.6-.4,1-1,1Z" fill="#122023"/></g><g><path d="M25,42.9c-.6,0-1-.4-1-1v-1.8c0-.6.4-1,1-1s1,.4,1,1v1.8c0,.6-.4,1-1,1Z" fill="#122023"/></g><g><path d="M25,49.5c-9.7,0-17.6-7.9-17.6-17.6s7.9-17.6,17.6-17.6s17.6,7.9,17.6,17.6-7.9,17.6-17.6,17.6Zm0-33.2c-8.6,0-15.6,7-15.6,15.6s7,15.6,15.6,15.6s15.6-7,15.6-15.6-7-15.6-15.6-15.6Z" fill="#122023"/></g><g><g id="eSzpDvr9sZM14_ts" transform="translate(15.6,13.234068) scale(1,0)"><path d="M15.6,13.2c-.6,0-1-.4-1-1v-6.1c0-.6.4-1,1-1s1,.4,1,1v6.1c0,.6-.4,1-1,1Z" transform="translate(-15.6,-13.2)" fill="#122023" stroke-dashoffset="18.57" stroke-dasharray="18.57"/></g></g><g id="eSzpDvr9sZM15_ts" transform="translate(34.2,13.234068) scale(1,0)"><g transform="translate(-34.2,-13.2)"><path d="M34.2,13.2c-.6,0-1-.4-1-1v-6.1c0-.6.4-1,1-1s1,.4,1,1v6.1c0,.6-.4,1-1,1Z" fill="#122023" stroke-dashoffset="18.57" stroke-dasharray="18.57"/></g></g><g id="eSzpDvr9sZM17_ts" transform="translate(24.9,13.234068) scale(1,0)"><g transform="translate(-24.9,-13.2)"><path d="M24.9,13.2c-.6,0-1-.4-1-1v-10.7c0-.6.4-1,1-1s1,.4,1,1v10.7c0,.6-.4,1-1,1Z" fill="#122023" stroke-dashoffset="27.77" stroke-dasharray="27.77"/></g></g></g></svg>
