<svg id="eezEUDnLlPc1" xmlns="http://www.w3.org/2000/svg" xmlns:xlink="http://www.w3.org/1999/xlink" viewBox="0 0 50 50" shape-rendering="geometricPrecision" text-rendering="geometricPrecision">
<style><![CDATA[
#eezEUDnLlPc15_ts {animation: eezEUDnLlPc15_ts__ts 3000ms linear infinite normal forwards}@keyframes eezEUDnLlPc15_ts__ts { 0% {transform: translate(29.7px,15.489718px) scale(0,1)} 36.666667% {transform: translate(29.7px,15.489718px) scale(0,1)} 53.333333% {transform: translate(29.7px,15.489718px) scale(1,1)} 100% {transform: translate(29.7px,15.489718px) scale(1,1)}} #eezEUDnLlPc17_ts {animation: eezEUDnLlPc17_ts__ts 3000ms linear infinite normal forwards}@keyframes eezEUDnLlPc17_ts__ts { 0% {transform: translate(29.7px,22.489718px) scale(0,1)} 23.333333% {transform: translate(29.7px,22.489718px) scale(0,1)} 40% {transform: translate(29.7px,22.489718px) scale(1,1)} 100% {transform: translate(29.7px,22.489718px) scale(1,1)}} #eezEUDnLlPc19_ts {animation: eezEUDnLlPc19_ts__ts 3000ms linear infinite normal forwards}@keyframes eezEUDnLlPc19_ts__ts { 0% {transform: translate(29.7px,29.389718px) scale(0,1)} 10% {transform: translate(29.7px,29.389718px) scale(0,1)} 26.666667% {transform: translate(29.7px,29.389718px) scale(1,1)} 100% {transform: translate(29.7px,29.389718px) scale(1,1)}} #eezEUDnLlPc21_ts {animation: eezEUDnLlPc21_ts__ts 3000ms linear infinite normal forwards}@keyframes eezEUDnLlPc21_ts__ts { 0% {transform: translate(29.7px,36.289718px) scale(0,1)} 16.666667% {transform: translate(29.7px,36.289718px) scale(1,1)} 100% {transform: translate(29.7px,36.289718px) scale(1,1)}}
]]></style>
<g><g><path d="M48.5,49.3h-47c-.6,0-1-.4-1-1s.4-1,1-1h47c.6,0,1,.4,1,1s-.4,1-1,1Z" fill="#122023"/></g><g><path d="M19.9,49.3c-.6,0-1-.4-1-1v-27.2h-14.4v27.2c0,.6-.4,1-1,1s-1-.4-1-1v-28.2c0-.6.4-1,1-1h16.4c.6,0,1,.4,1,1v28.2c0,.6-.4,1-1,1Z" fill="#122023"/></g><g><path d="M15.8,49.2c-.6,0-1-.4-1-1v-2.9h-6.2v2.9c0,.6-.4,1-1,1s-1-.4-1-1v-3.9c0-.6.4-1,1-1h8.2c.6,0,1,.4,1,1v3.9c0,.6-.4,1-1,1Z" fill="#122023"/></g><g><path d="M40,49.2c-.6,0-1-.4-1-1v-4.6h-3.9v4.6c0,.6-.4,1-1,1s-1-.4-1-1v-5.6c0-.6.4-1,1-1h5.9c.6,0,1,.4,1,1v5.6c0,.6-.4,1-1,1Z" fill="#122023"/></g><g><path d="M46.3,49.3c-.6,0-1-.4-1-1v-39.6h-14.4v39.6c0,.6-.4,1-1,1s-1-.4-1-1v-40.6c0-.6.4-1,1-1h16.4c.6,0,1,.4,1,1v40.6c0,.6-.4,1-1,1Z" fill="#122023"/></g><g><path d="M11.7,20.8c-.6,0-1-.4-1-1v-18.1c0-.6.4-1,1-1h27.5c.6,0,1,.4,1,1v5.7c0,.6-.4,1-1,1s-1-.4-1-1v-4.7h-25.5v17.1c0,.6-.4,1-1,1Z" fill="#122023"/></g><g id="eezEUDnLlPc15_ts" transform="translate(29.7,15.489718) scale(0,1)"><g transform="translate(-29.7,-15.489718)"><path d="M40.7,16.4h-10c-.6,0-1-.4-1-1s.4-1,1-1h10c.6,0,1,.4,1,1s-.4,1-1,1Z" transform="translate(0 0.089718)" fill="#122023"/></g></g><g id="eezEUDnLlPc17_ts" transform="translate(29.7,22.489718) scale(0,1)"><g transform="translate(-29.7,-22.489718)"><path d="M40.7,23.4h-10c-.6,0-1-.4-1-1s.4-1,1-1h10c.6,0,1,.4,1,1s-.4,1-1,1Z" transform="translate(0 0.089718)" fill="#122023"/></g></g><g id="eezEUDnLlPc19_ts" transform="translate(29.7,29.389718) scale(0,1)"><g transform="translate(-29.7,-29.389718)"><path d="M40.7,30.3h-10c-.6,0-1-.4-1-1s.4-1,1-1h10c.6,0,1,.4,1,1s-.4,1-1,1Z" transform="translate(0 0.089718)" fill="#122023"/></g></g><g id="eezEUDnLlPc21_ts" transform="translate(29.7,36.289718) scale(0,1)"><g transform="translate(-29.7,-36.289718)"><path d="M40.7,37.2h-10c-.6,0-1-.4-1-1s.4-1,1-1h10c.6,0,1,.4,1,1s-.4,1-1,1Z" transform="translate(0 0.089718)" fill="#122023"/></g></g></g></svg>
