<svg id="eh6Tj8Ns4SG1" xmlns="http://www.w3.org/2000/svg" xmlns:xlink="http://www.w3.org/1999/xlink" viewBox="0 0 50 50" shape-rendering="geometricPrecision" text-rendering="geometricPrecision">
<style><![CDATA[
#eh6Tj8Ns4SG26_tr {animation: eh6Tj8Ns4SG26_tr__tr 3000ms linear infinite normal forwards}@keyframes eh6Tj8Ns4SG26_tr__tr { 0% {transform: translate(25px,12.835191px) rotate(0deg)} 100% {transform: translate(25px,12.835191px) rotate(360deg)}} #eh6Tj8Ns4SG26 {animation: eh6Tj8Ns4SG26_s_do 3000ms linear infinite normal forwards}@keyframes eh6Tj8Ns4SG26_s_do { 0% {stroke-dashoffset: 72.27} 40% {stroke-dashoffset: 0} 90% {stroke-dashoffset: 0} 100% {stroke-dashoffset: 72.27}}
]]></style>
<g><g><g><path d="M25,14.2c-2.3,0-4.1-1.8-4.1-4.1s1.8-4.1,4.1-4.1s4.1,1.8,4.1,4.1c0,.6-.4,1-1,1s-1-.4-1-1C27.1,9,26.1,8,25,8s-2.1,1-2.1,2.1s1,2.1,2.1,2.1c.6,0,1,.4,1,1s-.4,1-1,1Z" fill="#122023"/></g><g><path d="M25,20.4c-2.3,0-4.1-1.8-4.1-4.1c0-.6.4-1,1-1s1,.4,1,1c0,1.1,1,2.1,2.1,2.1s2.1-1,2.1-2.1-1-2.1-2.1-2.1c-.6,0-1-.4-1-1s.4-1,1-1c2.3,0,4.1,1.8,4.1,4.1s-1.8,4.1-4.1,4.1Z" fill="#122023"/></g><g><path d="M25,7.9c-.6,0-1-.4-1-1v-1.3c0-.6.4-1,1-1s1,.4,1,1v1.3c0,.6-.4,1-1,1Z" fill="#122023"/></g><g><path d="M25,21.8c-.6,0-1-.4-1-1v-1.4c0-.6.4-1,1-1s1,.4,1,1v1.4c0,.6-.4,1-1,1Z" fill="#122023"/></g></g><g><path d="M41.8,49.5c-.2,0-.3,0-.4-.1h-33c-.6,0-1-.4-1-1c0-3.1,2.5-5.5,5.8-5.5.9,0,1.7.2,2.4.5c2.3-2.3,5.8-3.7,9.5-3.7s7.3,1.4,9.6,3.7c.7-.3,1.4-.5,2.3-.5c3.1,0,5.7,2.5,5.8,5.4c0,0,0,.1,0,.1s0,0,0,0s0,0,0,.1c0,.6-.4,1-1,1ZM9.6,47.4h31.1c-.5-1.4-2-2.5-3.6-2.5-.8,0-1.4.2-2.2.6-.4.2-.9.1-1.2-.3-1.8-2.2-5.1-3.5-8.5-3.5-3.5,0-6.7,1.3-8.5,3.5-.3.4-.8.5-1.3.2s-1.2-.6-2.1-.6c-1.9.1-3.3,1.1-3.7,2.6Z" fill="#122023"/></g><g><path d="M25,41.8c-.6,0-1-.4-1-1v-16c0-.6.4-1,1-1s1,.4,1,1v16c0,.6-.4,1-1,1Z" fill="#122023"/></g><g><g><path d="M22,42.1c0,0,0,0,0,0-.3,0-5.9-.4-8.8-4.4s-2.1-9.5-2.1-9.7c.1-.4.4-.8.8-.8.3,0,6.7-1,10.8,2.9.1.1,3.1,2.7,3.3,7.1c0,.6-.4,1-.9,1s-1-.4-1-.9c-.2-3.5-2.6-5.7-2.7-5.7-2.6-2.5-6.7-2.6-8.3-2.4-.1,1.5-.1,5,1.8,7.5c2.4,3.3,7.2,3.6,7.3,3.6.6,0,1,.5.9,1.1-.1.3-.6.7-1.1.7Z" fill="#122023"/></g><g><path d="M24.8,41.8c-.3,0-.5-.1-.7-.3l-5.7-5.7c-.4-.4-.4-1,0-1.4s1-.4,1.4,0l5.7,5.7c.4.4.4,1,0,1.4-.2.2-.4.3-.7.3Z" fill="#122023"/></g></g><g><g><path d="M28,42.1c-.5,0-1-.4-1-.9c0-.6.4-1,.9-1.1c0,0,4.9-.3,7.3-3.6C37,34,37.1,30.5,37,29c-1.7-.1-5.7-.1-8.3,2.4-.1.1-2.5,2.2-2.7,5.7c0,.6-.5,1-1,.9-.6,0-1-.5-.9-1c.2-4.4,3.2-7,3.3-7.1c4-3.9,10.4-2.9,10.7-2.8.4.1.8.4.8.8c0,.2.8,5.8-2.1,9.7-2.9,4.1-8.5,4.5-8.8,4.5c0,0,0,0,0,0Z" fill="#122023"/></g><g><path d="M25.2,41.8c-.3,0-.5-.1-.7-.3-.4-.4-.4-1,0-1.4l5.8-5.7c.4-.4,1-.4,1.4,0s.4,1,0,1.4l-5.8,5.7c-.2.2-.4.3-.7.3Z" fill="#122023"/></g></g></g><g id="eh6Tj8Ns4SG26_tr" transform="translate(25,12.835191) rotate(0)"><ellipse id="eh6Tj8Ns4SG26" rx="11.5" ry="11.5" transform="translate(0,0)" fill="none" stroke="#122023" stroke-width="2" stroke-linecap="round" stroke-dashoffset="72.27" stroke-dasharray="72.27"/></g></svg>
