<svg id="eaeF7r2fAoK1" xmlns="http://www.w3.org/2000/svg" xmlns:xlink="http://www.w3.org/1999/xlink" viewBox="0 0 50 50" shape-rendering="geometricPrecision" text-rendering="geometricPrecision">
<style><![CDATA[
#eaeF7r2fAoK11 {animation: eaeF7r2fAoK11_s_do 4000ms linear infinite normal forwards}@keyframes eaeF7r2fAoK11_s_do { 0% {stroke-dashoffset: 85.51} 25% {stroke-dashoffset: 0} 100% {stroke-dashoffset: 0}} #eaeF7r2fAoK12 {animation: eaeF7r2fAoK12_s_do 4000ms linear infinite normal forwards}@keyframes eaeF7r2fAoK12_s_do { 0% {stroke-dashoffset: 31.03} 20% {stroke-dashoffset: 31.03} 37.5% {stroke-dashoffset: 0} 100% {stroke-dashoffset: 0}}
]]></style>
<g transform="translate(.1 0)"><g><path d="M12.2,49.5c-.6,0-1.1-.2-1.6-.7L1.7,39.9c-.9-.9-.9-2.2,0-3.1l3.1-3.1c.9-.9,2.2-.9,3.1,0l8.9,8.9c.5.5.7,1.1.7,1.7s-.3,1.1-.7,1.4l-3.1,3.1c-.3.5-.9.7-1.5.7ZM6.4,35c0,0-.1,0-.1.1L3.2,38.2c-.1.1-.1.2,0,.3l8.9,8.9c.1.1.2.1.3,0l3.1-3.1c0,0,.1,0,.1-.1c0,0,0-.1-.1-.2L6.6,35.1c-.1,0-.1-.1-.2-.1Z" fill="#122023"/></g><g><path d="M7.6,35.7c-.3,0-.5-.1-.7-.3-.4-.4-.4-1,0-1.4l7.9-7.9c.2-.2.4-.3.7-.3h14.5c2.3,0,4.1,1.8,4.1,4.1s-1.8,4.1-4.1,4.1h-7.9c-.6,0-1-.4-1-1s.4-1,1-1h7.9c1.1,0,2.1-1,2.1-2.1s-1-2.1-2.1-2.1h-14.1L8.3,35.4c-.2.2-.4.3-.7.3Z" fill="#122023"/></g><g><path d="M15.9,44.1c-.5,0-.9-.4-1-.9s.3-1,.9-1.1L32.1,40l14-14c.9-.9.9-2.4,0-3.3s-2.4-.9-3.3,0l-5.1,5.2c-.4.4-1,.4-1.4,0s-.4-1,0-1.4l5.1-5.2c1.7-1.7,4.4-1.7,6.1,0s1.7,4.4,0,6.1L33.3,41.6c-.2.2-.4.3-.6.3L16,44.1c0,0-.1,0-.1,0Z" fill="#122023"/></g></g><rect id="eaeF7r2fAoK11" width="24.235341" height="18.520833" rx="2" ry="2" transform="matrix(.959372 0 0 0.971901 11.574647 1.249948)" fill="none" stroke="#122023" stroke-width="2" stroke-linecap="round" stroke-linejoin="round" stroke-dashoffset="85.51" stroke-dasharray="85.51"/><rect id="eaeF7r2fAoK12" width="8.309728" height="7.206306" rx="1" ry="1" transform="matrix(.910637 0 0 0.847329 19.416427 1.249948)" fill="none" stroke="#122023" stroke-width="2" stroke-dashoffset="31.03" stroke-dasharray="31.03"/></svg>
