<svg id="e6ehR5V2L7I1" xmlns="http://www.w3.org/2000/svg" xmlns:xlink="http://www.w3.org/1999/xlink" viewBox="0 0 50 50" shape-rendering="geometricPrecision" text-rendering="geometricPrecision">
<style><![CDATA[
#e6ehR5V2L7I15 {animation: e6ehR5V2L7I15_s_do 3000ms linear infinite normal forwards}@keyframes e6ehR5V2L7I15_s_do { 0% {stroke-dashoffset: 43.31} 30% {stroke-dashoffset: 0} 100% {stroke-dashoffset: 0}} #e6ehR5V2L7I16 {animation: e6ehR5V2L7I16_s_do 3000ms linear infinite normal forwards}@keyframes e6ehR5V2L7I16_s_do { 0% {stroke-dashoffset: 43.56} 26.666667% {stroke-dashoffset: 43.56} 56.666667% {stroke-dashoffset: 0} 100% {stroke-dashoffset: 0}} #e6ehR5V2L7I17 {animation: e6ehR5V2L7I17_s_do 3000ms linear infinite normal forwards}@keyframes e6ehR5V2L7I17_s_do { 0% {stroke-dashoffset: 12.55} 30% {stroke-dashoffset: 0} 100% {stroke-dashoffset: 0}} #e6ehR5V2L7I18 {animation: e6ehR5V2L7I18_s_do 3000ms linear infinite normal forwards}@keyframes e6ehR5V2L7I18_s_do { 0% {stroke-dashoffset: 21.69} 40% {stroke-dashoffset: 21.69} 70% {stroke-dashoffset: 0} 100% {stroke-dashoffset: 0}}
]]></style>
<g><g><path d="M6.2,49.3h-4.9c-.6,0-1-.4-1-1v-23.6c0-.6.4-1,1-1h4.9c2.9,0,5.2,2.3,5.2,5.2v15.2c0,2.9-2.3,5.2-5.2,5.2Zm-3.9-2h3.9c1.7,0,3.2-1.5,3.2-3.2v-15.2c0-1.7-1.5-3.2-3.2-3.2h-3.9v21.6Z" fill="#122023"/></g><g><path d="M34,46.5h-23.6c-.6,0-1-.4-1-1s.4-1,1-1h23.6c2,0,3.8-.9,5-2.4l8.4-10.5c.6-.7.5-1.7-.1-2.4-.3-.3-.8-.5-1.3-.5s-.9.2-1.3.6l-6.4,6.9c-.9.9-1.9,1.3-3,1.3h-13.3c-.6,0-1-.4-1-1s.4-1,1-1h11.6c1.1,0,2-.9,2-2s-.9-2-2-2h-8.1c-.3,0-.6-.1-.8-.4c0,0-2.8-3.3-6.8-3.3-4.1,0-6.7,3-6.7,3.1-.4.4-1,.5-1.4.1s-.5-1-.1-1.4c.1-.2,3.3-3.8,8.3-3.8c4.2,0,7.1,2.7,8,3.7h7.7c2.2,0,4,1.8,4,4c0,.2,0,.4,0,.6l5.7-6.2c.7-.8,1.7-1.2,2.7-1.2s2,.4,2.7,1.1c1.4,1.4,1.5,3.5.3,5L40.7,43.3c-1.7,2-4.1,3.2-6.7,3.2Z" fill="#122023"/></g></g><path id="e6ehR5V2L7I15" d="M39.8,32.8v-31.095353h-6.2v6.011123" transform="translate(0 0.000002)" fill="none" stroke="#122023" stroke-width="2" stroke-linecap="round" stroke-linejoin="round" stroke-dashoffset="43.31" stroke-dasharray="43.31"/><path id="e6ehR5V2L7I16" d="M10.4,17.9L28,4.2L44.7,17.35" fill="none" stroke="#122023" stroke-width="2" stroke-linecap="round" stroke-linejoin="round" stroke-dashoffset="43.56" stroke-dasharray="43.56"/><path id="e6ehR5V2L7I17" d="M15.9,26.05v-12.55" fill="none" stroke="#122023" stroke-width="2" stroke-dashoffset="12.55" stroke-dasharray="12.55"/><path id="e6ehR5V2L7I18" d="M25,29.6c0-.1,0-7.798457,0-7.888175q0-.089718,6,0v7.788173" transform="translate(0 0.000002)" fill="none" stroke="#122023" stroke-width="2" stroke-linecap="round" stroke-linejoin="round" stroke-dashoffset="21.69" stroke-dasharray="21.69"/></svg>
