<svg id="e5xQNtkFAJI1" xmlns="http://www.w3.org/2000/svg" xmlns:xlink="http://www.w3.org/1999/xlink" viewBox="0 0 50 50" shape-rendering="geometricPrecision" text-rendering="geometricPrecision" project-id="b8bf47f537374044ac597bfc5b2de7c7" export-id="0e79eb719c884c5bad0880fe3aa177d8" cached="false">
<style><![CDATA[
#e5xQNtkFAJI5 {animation: e5xQNtkFAJI5_s_do 3000ms linear infinite normal forwards}@keyframes e5xQNtkFAJI5_s_do { 0% {stroke-dashoffset: 25.13} 16.666667% {stroke-dashoffset: 25.13} 33.333333% {stroke-dashoffset: 0} 100% {stroke-dashoffset: 0}} #e5xQNtkFAJI6 {animation: e5xQNtkFAJI6_s_do 3000ms linear infinite normal forwards}@keyframes e5xQNtkFAJI6_s_do { 0% {stroke-dashoffset: 25.13} 16.666667% {stroke-dashoffset: 25.13} 33.333333% {stroke-dashoffset: 0} 100% {stroke-dashoffset: 0}} #e5xQNtkFAJI7 {animation: e5xQNtkFAJI7_s_do 3000ms linear infinite normal forwards}@keyframes e5xQNtkFAJI7_s_do { 0% {stroke-dashoffset: 12.6;animation-timing-function: cubic-bezier(0.5,0,0.5,1)} 16.666667% {stroke-dashoffset: 0} 100% {stroke-dashoffset: 0}} #e5xQNtkFAJI8 {animation: e5xQNtkFAJI8_s_do 3000ms linear infinite normal forwards}@keyframes e5xQNtkFAJI8_s_do { 0% {stroke-dashoffset: 25.13} 16.666667% {stroke-dashoffset: 25.13} 33.333333% {stroke-dashoffset: 0} 100% {stroke-dashoffset: 0}} #e5xQNtkFAJI9 {animation: e5xQNtkFAJI9_s_do 3000ms linear infinite normal forwards}@keyframes e5xQNtkFAJI9_s_do { 0% {stroke-dashoffset: 15.73;animation-timing-function: cubic-bezier(0.5,0,0.5,1)} 16.666667% {stroke-dashoffset: 0} 100% {stroke-dashoffset: 0}} #e5xQNtkFAJI10 {animation: e5xQNtkFAJI10_s_do 3000ms linear infinite normal forwards}@keyframes e5xQNtkFAJI10_s_do { 0% {stroke-dashoffset: 15.73;animation-timing-function: cubic-bezier(0.5,0,0.5,1)} 16.666667% {stroke-dashoffset: 0} 100% {stroke-dashoffset: 0}}
]]></style>
<g><g><path d="M28.2,36.4c-1,.3-2.1.4-3.2.4-6.6,0-11.9-5.3-11.9-11.9s5.3-11.9,11.9-11.9c3.2,0,2.2.1,3.2.4v22.9.1Z" fill="none" stroke="#122023" stroke-width="2" stroke-linecap="round" stroke-linejoin="round"/><circle id="e5xQNtkFAJI5" r="4" transform="matrix(-1 0 0-1 44.799998 10)" fill="none" stroke="#122023" stroke-width="2" stroke-linecap="round" stroke-linejoin="round" stroke-dashoffset="25.13" stroke-dasharray="25.13"/><circle id="e5xQNtkFAJI6" r="4" transform="matrix(-1 0 0-1 44.799998 25)" fill="none" stroke="#122023" stroke-width="2" stroke-linecap="round" stroke-linejoin="round" stroke-dashoffset="25.13" stroke-dasharray="25.13"/><line id="e5xQNtkFAJI7" x1="28.2" y1="25" x2="40.8" y2="25" fill="none" stroke="#122023" stroke-width="2" stroke-linecap="round" stroke-linejoin="round" stroke-dashoffset="12.6" stroke-dasharray="12.6"/><circle id="e5xQNtkFAJI8" r="4" transform="matrix(-1 0 0-1 44.799998 40)" fill="none" stroke="#122023" stroke-width="2" stroke-linecap="round" stroke-linejoin="round" stroke-dashoffset="25.13" stroke-dasharray="25.13"/><polyline id="e5xQNtkFAJI9" points="40.8,10 36.9,10 32.1,16.3 28.2,16.3" transform="matrix(-1 0 0 1 69 23.7)" fill="none" stroke="#122023" stroke-width="2" stroke-linecap="round" stroke-linejoin="round" stroke-dashoffset="15.73" stroke-dasharray="15.73"/><polyline id="e5xQNtkFAJI10" points="40.8,40 36.9,40 32.1,33.7 28.2,33.7" transform="matrix(-1 0 0 1 69-23.7)" fill="none" stroke="#122023" stroke-width="2" stroke-linecap="round" stroke-linejoin="round" stroke-dashoffset="15.73" stroke-dasharray="15.73"/><path d="M28.2,1.2v47.5h-6.3l-.6-5.1c-2.4-.5-4.7-1.4-6.7-2.8L10.5,44L6,39.5l3.2-4.1c-1.3-2-2.3-4.2-2.8-6.7l-5.1-.6v-6.3l5.1-.6c.5-2.4,1.4-4.7,2.8-6.7L6,10.4l4.5-4.5l4.1,3.2c2-1.3,4.2-2.3,6.7-2.8l.6-5.1h6.3Z" fill="none" stroke="#122023" stroke-width="2" stroke-linecap="round" stroke-linejoin="round"/></g></g></svg>
